<?xml version="1.0" encoding="utf-8"?>
<!-- Generator: Adobe Illustrator 25.2.1, SVG Export Plug-In . SVG Version: 6.00 Build 0)  -->
<svg version="1.1" id="Layer_1" xmlns="http://www.w3.org/2000/svg" xmlns:xlink="http://www.w3.org/1999/xlink" x="0px" y="0px"
	 viewBox="0 0 1080 432.63" style="enable-background:new 0 0 1080 432.63;" xml:space="preserve">
<style type="text/css">
	.st0{fill-rule:evenodd;clip-rule:evenodd;fill:#349150;}
	.st1{fill-rule:evenodd;clip-rule:evenodd;fill:#FDED1E;}
	.st2{fill:#FDED1E;}
</style>
<g>
	<g>
		<path class="st0" d="M337.39,216.03c0,83.21-67.45,150.66-150.66,150.66c-83.21,0-150.66-67.45-150.66-150.66
			c0-83.21,67.45-150.66,150.66-150.66C269.94,65.37,337.39,132.82,337.39,216.03"/>
		<path class="st1" d="M225.82,133.64c0-2.39-1.94-4.34-4.34-4.34c-2.4,0-4.34,1.94-4.34,4.34v36.11l-26.06,22.51v-84.67
			c0-2.39-1.94-4.34-4.34-4.34c-2.39,0-4.34,1.94-4.34,4.34v84.68l-26.07-22.52v-36.12c0-2.39-1.94-4.34-4.34-4.34
			c-2.39,0-4.34,1.94-4.34,4.34v136.83l34.75,25.26v33.33c0,2.39,1.94,4.35,4.34,4.35c2.4,0,4.34-1.95,4.34-4.35v-33.33l34.74-25.26
			V133.64z M156.33,211.63l26.07,22.52v18.93l-26.07-22.51V211.63z M191.08,234.14l26.06-22.51v18.93l-26.06,22.51V234.14z
			 M217.14,181.23v18.93l-26.06,22.51v-18.92L217.14,181.23z M182.4,203.75v18.92l-26.07-22.51v-18.93L182.4,203.75z M156.33,266.05
			v-24.02l26.07,22.52V285L156.33,266.05z M191.08,285v-20.46l26.06-22.51v24.03L191.08,285z"/>
	</g>
	<g>
		<path class="st0" d="M690.02,216.03c0,83.21-67.45,150.66-150.66,150.66c-83.21,0-150.66-67.45-150.66-150.66
			c0-83.21,67.45-150.66,150.66-150.66C622.56,65.37,690.02,132.82,690.02,216.03"/>
		<g>
			<path class="st2" d="M544.1,284.99l0.39-35.87c7.19-0.48,14.27-3.3,20.02-8.51c13.55-12.29,14.57-33.23,2.28-46.78
				c-3.97-4.38-8.85-7.45-14.08-9.18l9.18-38.34c3.45-0.06,6.9-1.32,9.66-3.82c6.03-5.47,6.48-14.79,1.01-20.82
				c-5.46-6.03-14.78-6.48-20.82-1.01c-6.03,5.47-6.48,14.79-1.01,20.82c1.19,1.31,2.55,2.35,4.02,3.13l-9.23,38.52
				c-8.3-0.82-16.88,1.48-23.83,7l-24.26-26.75c3.51-5.39,3.11-12.66-1.41-17.64c-5.38-5.93-14.53-6.38-20.46-1
				c-5.93,5.38-6.37,14.54-1,20.46c4.52,4.98,11.72,6.09,17.41,3.12l24.48,26.99c-10.07,12.48-9.84,30.77,1.27,43.02
				c5.29,5.83,12.2,9.34,19.42,10.47l-0.4,36.11c-2.46,0.58-4.81,1.76-6.81,3.58c-6.28,5.7-6.75,15.41-1.06,21.69
				c5.7,6.28,15.41,6.76,21.69,1.06c6.28-5.7,6.76-15.41,1.06-21.69C549.55,287.24,546.91,285.71,544.1,284.99 M545.27,305.39
				c-3.26,2.96-8.29,2.71-11.25-0.55c-2.96-3.26-2.71-8.3,0.55-11.25c3.26-2.96,8.29-2.71,11.25,0.55
				C548.77,297.4,548.53,302.43,545.27,305.39"/>
			<path class="st2" d="M541.1,176.35l1.77-7.38c-8.93-0.11-17.92,2.29-25.79,7.29l5.04,5.55
				C527.98,178.35,534.53,176.54,541.1,176.35"/>
			<path class="st2" d="M631.49,199.22c-7.7-8.48-20.82-9.12-29.3-1.43c-3.74,3.4-5.95,7.85-6.6,12.49l-6.55,0.26
				c-1.11-9.4-5.04-18.57-11.89-26.11c-4.51-4.98-9.85-8.77-15.61-11.35l-1.75,7.31c4.38,2.15,8.43,5.15,11.92,8.98
				c7.37,8.13,10.76,18.48,10.26,28.64c-0.5,10.16-4.87,20.13-13,27.5c-5.46,4.95-11.92,8.1-18.65,9.49l-0.07,7.5
				c8.54-1.46,16.78-5.29,23.67-11.54c9.63-8.74,14.81-20.56,15.4-32.6l0.02-0.48l6.54-0.26c0.75,3.42,2.38,6.69,4.9,9.47
				c7.7,8.48,20.81,9.12,29.3,1.43C638.55,220.83,639.19,207.71,631.49,199.22 M623.99,221.72c-4.42,4-11.25,3.67-15.26-0.74
				c-4-4.42-3.67-11.25,0.75-15.25c4.42-4.01,11.24-3.67,15.25,0.75C628.74,210.89,628.4,217.72,623.99,221.72"/>
			<path class="st2" d="M531.2,254.26c-6.84-1.97-13.24-5.81-18.38-11.48c-7.38-8.13-10.76-18.48-10.26-28.64
				c0.32-6.61,2.29-13.15,5.86-18.93l-5.12-5.64c-4.97,7.29-7.68,15.7-8.1,24.22c-0.25,5.18,0.35,10.41,1.81,15.46l-11.35,4.28
				c-0.83-1.45-1.84-2.84-3.01-4.14c-8.7-9.59-23.54-10.32-33.13-1.61c-9.6,8.71-10.32,23.54-1.62,33.13
				c8.7,9.6,23.54,10.32,33.14,1.61c6.37-5.78,8.82-14.26,7.21-22.12l11.35-4.29c1.94,4.13,4.52,8.05,7.75,11.61
				c6.58,7.25,14.9,11.98,23.75,14.13L531.2,254.26z M472.71,253.66c-4.83,4.38-12.3,4.02-16.68-0.81
				c-4.38-4.83-4.02-12.3,0.81-16.68c4.83-4.38,12.3-4.02,16.68,0.81C477.9,241.81,477.54,249.28,472.71,253.66"/>
		</g>
	</g>
	<g>
		<path class="st0" d="M1043.93,216.03c0,83.21-67.45,150.66-150.66,150.66c-83.21,0-150.66-67.45-150.66-150.66
			c0-83.21,67.45-150.66,150.66-150.66C976.47,65.37,1043.93,132.82,1043.93,216.03"/>
		<path class="st1" d="M968.36,198.62c-0.54-0.38-1.1-0.74-1.66-1.08c-0.16-0.1-0.33-0.19-0.5-0.29c-0.4-0.23-0.8-0.47-1.21-0.69
			c-0.2-0.11-0.4-0.2-0.61-0.3c-0.38-0.19-0.75-0.39-1.14-0.56c-0.22-0.1-0.44-0.19-0.66-0.28c-0.37-0.16-0.75-0.33-1.12-0.47
			c-0.23-0.09-0.46-0.17-0.69-0.25c-0.38-0.14-0.75-0.27-1.12-0.4c-0.23-0.08-0.47-0.14-0.71-0.21c-0.38-0.12-0.76-0.23-1.14-0.33
			c-0.24-0.06-0.47-0.11-0.71-0.17c-0.39-0.09-0.78-0.18-1.17-0.26c-0.23-0.05-0.46-0.08-0.69-0.12c-0.41-0.07-0.81-0.14-1.22-0.2
			c-0.06-0.01-0.12-0.02-0.19-0.03c-0.18-0.03-0.36-0.04-0.54-0.06c-0.37-0.04-0.74-0.09-1.11-0.12c-0.23-0.02-0.46-0.03-0.69-0.04
			c-0.38-0.02-0.77-0.05-1.15-0.06c-0.22-0.01-0.44,0-0.65,0c-0.4,0-0.8,0-1.19,0.01c-0.21,0.01-0.42,0.02-0.63,0.03
			c-0.41,0.02-0.81,0.04-1.21,0.07c-0.21,0.02-0.42,0.05-0.62,0.07c-0.41,0.04-0.82,0.08-1.22,0.14c-0.21,0.03-0.42,0.07-0.63,0.11
			c-0.4,0.07-0.8,0.13-1.21,0.21c-0.24,0.05-0.48,0.11-0.72,0.16c-0.37,0.08-0.74,0.16-1.11,0.25c-0.61,0.16-1.22,0.33-1.82,0.52
			c-9.92,3.15-17.63,10.57-21.19,20.34l-5.5,15.11l0.51,0.51c-0.12,0.13-0.25,0.25-0.37,0.39c-0.99,1.12-1.84,2.25-2.62,3.39
			c-1.4-7.01-3.63-14.06-6.92-20.88c-0.53-10.9,0.39-19.59,2.76-25.96l10.22-0.2c5.43-0.11,10.44-2.3,14.19-6.2
			c0.12-0.13,0.25-0.26,0.38-0.4c0.21-0.24,0.42-0.48,0.63-0.72c0.13-0.16,0.24-0.33,0.37-0.49c0.18-0.24,0.36-0.47,0.54-0.71
			c0.23-0.32,0.44-0.64,0.64-0.96c0.15-0.24,0.3-0.47,0.44-0.71c0.2-0.34,0.37-0.69,0.55-1.04c0.12-0.24,0.24-0.48,0.35-0.73
			c0.16-0.36,0.31-0.73,0.45-1.1c0.09-0.25,0.19-0.49,0.28-0.74c0.13-0.38,0.23-0.77,0.34-1.15c0.07-0.25,0.14-0.5,0.2-0.76
			c0.09-0.4,0.16-0.8,0.22-1.21c0.04-0.25,0.09-0.5,0.13-0.75c0.05-0.44,0.08-0.89,0.1-1.34c0.01-0.22,0.04-0.44,0.05-0.66
			c0.01-0.67,0-1.35-0.04-2.03l-1.26-17.49l-20.23,4.08c-0.75,0.15-1.47,0.34-2.18,0.58c-0.21,0.07-0.4,0.16-0.61,0.23
			c-0.49,0.18-0.99,0.36-1.46,0.58c-0.25,0.11-0.47,0.25-0.71,0.37c-0.42,0.21-0.83,0.42-1.23,0.66c-0.24,0.14-0.45,0.31-0.68,0.47
			c-0.38,0.25-0.76,0.51-1.12,0.79c-0.03,0.02-0.07,0.05-0.1,0.07c-0.24,0.19-0.45,0.41-0.68,0.61c-0.27,0.23-0.54,0.46-0.8,0.71
			c-0.26,0.26-0.5,0.54-0.74,0.81c-0.23,0.25-0.47,0.49-0.68,0.76c-0.25,0.31-0.48,0.65-0.71,0.97c-0.18,0.25-0.38,0.5-0.55,0.76
			c-0.38,0.6-0.74,1.23-1.07,1.89c-2.63,5.34-2.64,11.47-0.02,16.81l0.94,1.93c-2.69,5.85-4.2,13.39-4.52,22.54
			c-3.63-5.33-7.9-10.13-12.83-14.42l0.38-10.64c0.37-10.4-4-20.17-11.99-26.82c-0.46-0.39-0.94-0.76-1.42-1.12
			c-0.17-0.13-0.34-0.24-0.51-0.36c-0.32-0.23-0.64-0.46-0.97-0.67c-0.2-0.13-0.41-0.26-0.62-0.39c-0.3-0.19-0.6-0.38-0.91-0.56
			c-0.22-0.13-0.44-0.25-0.66-0.38c-0.31-0.17-0.61-0.33-0.92-0.5c-0.22-0.12-0.44-0.23-0.67-0.34c-0.32-0.16-0.65-0.31-0.97-0.45
			c-0.21-0.1-0.43-0.2-0.64-0.29c-0.39-0.16-0.77-0.31-1.16-0.46c-0.16-0.06-0.32-0.13-0.48-0.19c-0.55-0.2-1.1-0.38-1.65-0.55
			c-0.18-0.05-0.35-0.1-0.52-0.15c-0.39-0.11-0.78-0.22-1.18-0.32c-0.23-0.06-0.45-0.1-0.67-0.15c-0.35-0.08-0.7-0.16-1.06-0.22
			c-0.24-0.04-0.47-0.09-0.71-0.13c-0.35-0.06-0.7-0.11-1.05-0.16c-0.24-0.03-0.48-0.06-0.71-0.09c-0.37-0.04-0.73-0.07-1.09-0.1
			c-0.23-0.02-0.45-0.04-0.68-0.05c-0.4-0.03-0.81-0.04-1.21-0.05c-0.19,0-0.38-0.01-0.56-0.01c-0.59,0-1.19,0.01-1.78,0.04
			c-0.05,0-0.1,0.01-0.16,0.01c-0.49,0.03-0.98,0.06-1.47,0.11c-0.05,0-0.09,0.01-0.14,0.02c-0.45,0.05-0.91,0.11-1.36,0.18
			c-0.2,0.03-0.41,0.05-0.61,0.09c-0.66,0.11-1.32,0.23-1.98,0.38l-35.2,7.88l10.44,28.82c3.34,9.21,10.12,16.45,19.12,20.37
			c0.7,0.31,1.42,0.58,2.13,0.84c0.21,0.08,0.42,0.15,0.62,0.22c0.56,0.19,1.11,0.37,1.67,0.53c0.19,0.05,0.37,0.11,0.56,0.16
			c0.71,0.19,1.43,0.37,2.15,0.51c0.18,0.04,0.36,0.06,0.54,0.1c0.56,0.1,1.12,0.2,1.68,0.28c0.13,0.02,0.26,0.05,0.39,0.06
			c0.13,0.02,0.25,0.02,0.38,0.04c0.45,0.05,0.9,0.09,1.34,0.13c0.21,0.02,0.43,0.04,0.64,0.05c0.68,0.04,1.36,0.06,2.04,0.06
			c4.67,0,9.34-0.94,13.8-2.82l13.05-5.52c6.13,5.52,11.1,11.95,14.84,19.29c8.38,16.46,9.44,35.04,8.13,50.41
			c-0.72-1.53-1.56-3.06-2.56-4.56c-2.69-4-6.11-7.19-10.21-9.6v-3.01c0-7.36-2.85-14.22-8.03-19.41c-0.17-0.17-0.35-0.35-0.54-0.52
			c-0.32-0.3-0.64-0.59-0.96-0.87c-0.21-0.18-0.44-0.34-0.65-0.51c-0.31-0.26-0.63-0.51-0.96-0.76c-0.42-0.31-0.84-0.6-1.27-0.88
			c-0.32-0.21-0.65-0.43-0.98-0.63c-0.45-0.27-0.9-0.51-1.37-0.76c-0.34-0.17-0.67-0.35-1.01-0.52c-0.48-0.22-0.96-0.42-1.45-0.62
			c-0.34-0.14-0.69-0.29-1.04-0.41c-0.5-0.18-1.01-0.32-1.52-0.47c-0.35-0.1-0.7-0.22-1.06-0.3c-0.53-0.13-1.07-0.23-1.61-0.33
			c-0.35-0.06-0.69-0.15-1.04-0.2c-0.59-0.09-1.19-0.13-1.79-0.18c-0.3-0.02-0.61-0.07-0.91-0.08c-0.91-0.04-1.83-0.04-2.75,0.01
			l-23.75,1.25l5.01,27.54c0.09,0.51,0.2,1.01,0.32,1.51c0.03,0.13,0.07,0.25,0.1,0.37c0.09,0.37,0.19,0.73,0.3,1.09
			c0.05,0.16,0.1,0.31,0.16,0.47c0.11,0.32,0.21,0.65,0.33,0.97c0.06,0.17,0.13,0.33,0.2,0.49c0.12,0.3,0.23,0.61,0.37,0.9
			c0.07,0.17,0.16,0.34,0.24,0.51c0.13,0.28,0.26,0.57,0.4,0.85c0.09,0.17,0.18,0.33,0.27,0.5c0.15,0.27,0.29,0.54,0.45,0.81
			c0.09,0.16,0.19,0.32,0.29,0.48c0.16,0.27,0.33,0.53,0.5,0.79c0.09,0.15,0.2,0.29,0.3,0.43c0.19,0.27,0.37,0.53,0.57,0.79
			c0.03,0.04,0.05,0.08,0.08,0.11c0.03,0.04,0.06,0.07,0.09,0.11c0.53,0.69,1.09,1.35,1.7,1.98c0.04,0.05,0.09,0.09,0.13,0.14
			c0.61,0.64,1.26,1.25,1.94,1.82c0.03,0.03,0.07,0.05,0.1,0.08c0.7,0.58,1.43,1.13,2.2,1.64c0.02,0.01,0.04,0.03,0.06,0.04
			c0.78,0.52,1.6,1,2.45,1.45c7.17,3.71,15.48,3.88,22.79,0.46l11.31-5.27v-2.15c2.06,1.59,3.84,3.47,5.31,5.65
			c4.55,6.76,4.8,14.38,4.75,16.87c-1.81,8.44-3.74,13.82-3.79,13.98c-0.82,2.25,0.33,4.75,2.59,5.58c0.49,0.19,0.99,0.27,1.49,0.27
			c1.77,0,3.42-1.09,4.07-2.84c0.47-1.26,7.29-20.24,7.6-43.87c0.65-0.87,0.98-1.96,0.84-3.11c-0.02-0.1-1.03-9.54,6.24-17.71
			c0.01-0.01,0.01-0.01,0.02-0.02l6.92,6.92c6.71,6.7,15.54,10.36,24.99,10.36c0.31,0,0.64-0.01,0.96-0.02
			c0.56-0.01,1.12-0.04,1.68-0.08c0.04,0,0.07-0.01,0.11-0.01c0.11-0.01,0.22-0.02,0.33-0.03c0.48-0.04,0.96-0.09,1.44-0.15
			c0.15-0.02,0.3-0.04,0.45-0.06c0.43-0.06,0.86-0.12,1.29-0.2c0.18-0.03,0.35-0.07,0.53-0.1c0.4-0.08,0.79-0.15,1.18-0.24
			c0.19-0.05,0.39-0.09,0.58-0.14c0.37-0.09,0.74-0.18,1.11-0.29c0.2-0.06,0.4-0.12,0.61-0.18c0.35-0.1,0.7-0.21,1.05-0.33
			c0.21-0.07,0.42-0.15,0.63-0.22c0.33-0.12,0.66-0.24,0.99-0.37c0.22-0.08,0.43-0.17,0.65-0.26c0.32-0.13,0.63-0.27,0.94-0.41
			c0.22-0.1,0.44-0.2,0.66-0.3c0.3-0.14,0.6-0.29,0.9-0.44c0.22-0.11,0.44-0.23,0.66-0.34c0.29-0.15,0.57-0.31,0.85-0.47
			c0.22-0.13,0.44-0.25,0.66-0.39c0.27-0.17,0.54-0.34,0.81-0.51c0.22-0.14,0.44-0.28,0.66-0.43c0.26-0.18,0.52-0.36,0.78-0.55
			c0.21-0.15,0.43-0.31,0.64-0.46c0.26-0.19,0.51-0.39,0.76-0.59c0.2-0.16,0.41-0.32,0.61-0.49c0.26-0.21,0.5-0.43,0.75-0.65
			c0.19-0.17,0.39-0.33,0.57-0.5c0.27-0.25,0.53-0.51,0.8-0.77c0.16-0.15,0.32-0.3,0.47-0.45c0.42-0.42,0.82-0.85,1.22-1.29
			l20.5-22.78L968.36,198.62z M863.53,193.85c-0.75,0.32-1.51,0.59-2.28,0.83c-0.23,0.07-0.46,0.14-0.69,0.21
			c-0.61,0.18-1.22,0.34-1.83,0.47c-0.18,0.04-0.37,0.09-0.55,0.12c-0.75,0.15-1.51,0.26-2.27,0.34c-0.24,0.03-0.47,0.04-0.71,0.06
			c-0.59,0.05-1.18,0.07-1.77,0.08c-0.23,0-0.46,0.01-0.69,0.01c-0.77-0.01-1.54-0.05-2.3-0.13c-0.17-0.02-0.34-0.05-0.51-0.07
			c-0.66-0.08-1.32-0.18-1.98-0.32c-0.17-0.03-0.33-0.06-0.5-0.1c-0.75-0.17-1.49-0.36-2.23-0.59c-0.16-0.05-0.32-0.1-0.47-0.16
			c-0.77-0.26-1.54-0.54-2.3-0.87c-6.78-2.96-11.9-8.41-14.42-15.37l-7.08-19.53l25.57-5.73c0.64-0.15,1.29-0.25,1.93-0.34
			c0.16-0.02,0.32-0.05,0.48-0.07c0.72-0.09,1.44-0.15,2.16-0.17c0.14,0,0.27-0.01,0.41-0.01c0.74-0.01,1.47,0,2.2,0.05
			c0.09,0.01,0.18,0.02,0.28,0.03c0.76,0.06,1.52,0.15,2.27,0.29c0.01,0,0.03,0,0.05,0.01c0.76,0.14,1.51,0.32,2.25,0.53
			c0.09,0.02,0.18,0.05,0.27,0.07c0.71,0.21,1.41,0.45,2.09,0.72c0.12,0.04,0.23,0.09,0.34,0.13c0.67,0.28,1.34,0.59,1.99,0.93
			c0.11,0.06,0.21,0.11,0.32,0.17c0.66,0.36,1.3,0.74,1.93,1.15c0.07,0.05,0.15,0.11,0.23,0.16c0.65,0.45,1.3,0.92,1.92,1.43
			c5.91,4.91,9.14,12.13,8.86,19.81l-0.16,4.54c-8.32-5.52-18.03-9.89-29.12-13.06c-2.3-0.66-4.71,0.68-5.36,2.98
			c-0.66,2.31,0.67,4.71,2.98,5.37c10.49,3,19.62,7.13,27.35,12.38L863.53,193.85z M930.22,153.76l0.85,11.86
			c0.04,0.51,0.05,1.01,0.03,1.51c0,0.17-0.02,0.34-0.03,0.51c-0.02,0.33-0.04,0.65-0.08,0.98c-0.02,0.19-0.06,0.38-0.09,0.58
			c-0.05,0.3-0.1,0.59-0.16,0.88c-0.04,0.2-0.1,0.39-0.15,0.59c-0.07,0.28-0.15,0.56-0.25,0.84c-0.06,0.2-0.14,0.39-0.21,0.58
			c-0.1,0.27-0.21,0.54-0.32,0.8c-0.08,0.19-0.17,0.38-0.26,0.56c-0.13,0.26-0.27,0.51-0.41,0.76c-0.1,0.18-0.21,0.36-0.32,0.54
			c-0.15,0.24-0.31,0.48-0.48,0.71c-0.13,0.18-0.25,0.35-0.38,0.52c-0.27,0.35-0.55,0.7-0.85,1.04c-2.88,3.17-6.76,4.89-11,4.97
			l-7.65,0.15c0.2-0.31,0.39-0.62,0.6-0.91c4.83-6.68,10.89-6.14,10.96-6.13c1.53,0.16,2.82-1.42,2.88-3.52c0-0.15,0-0.3-0.01-0.45
			c-0.11-1.91-1.24-3.49-2.67-3.64c-0.35-0.04-8.53-0.75-15.04,8.11c-1.43-3.67-1.28-7.72,0.48-11.31c0.26-0.51,0.54-1.01,0.85-1.48
			c0.08-0.12,0.17-0.23,0.25-0.35c0.24-0.34,0.48-0.68,0.74-0.99c0.12-0.15,0.26-0.28,0.39-0.43c0.24-0.27,0.48-0.53,0.74-0.77
			c0.16-0.15,0.33-0.29,0.5-0.43c0.25-0.21,0.5-0.42,0.76-0.62c0.23-0.17,0.47-0.33,0.71-0.49c0.18-0.12,0.37-0.24,0.55-0.35
			c0.26-0.15,0.54-0.29,0.81-0.43c0.19-0.09,0.37-0.19,0.56-0.28c0.31-0.14,0.64-0.26,0.96-0.37c0.16-0.06,0.32-0.13,0.49-0.18
			c0.5-0.16,1.01-0.29,1.53-0.4L930.22,153.76z M883.42,259.45l-7.42,3.46c-5.4,2.52-11.54,2.4-16.84-0.34
			c-0.69-0.36-1.35-0.76-1.98-1.19c-0.17-0.12-0.33-0.25-0.5-0.38c-0.44-0.32-0.89-0.65-1.3-1.01c-0.2-0.18-0.39-0.37-0.58-0.56
			c-0.35-0.33-0.7-0.66-1.02-1.01c-0.2-0.22-0.39-0.46-0.58-0.7c-0.28-0.34-0.56-0.68-0.81-1.03c-0.23-0.31-0.43-0.64-0.64-0.97
			c-0.16-0.25-0.32-0.5-0.47-0.76c-0.2-0.36-0.38-0.74-0.56-1.12c-0.12-0.25-0.26-0.5-0.37-0.76c-0.18-0.43-0.33-0.87-0.48-1.32
			c-0.07-0.22-0.17-0.44-0.23-0.66c-0.2-0.68-0.37-1.37-0.5-2.08L845.51,229l16.1-0.85c0.69-0.04,1.37-0.03,2.05,0
			c0.23,0.01,0.45,0.04,0.68,0.06c0.44,0.04,0.89,0.07,1.33,0.13c0.26,0.04,0.51,0.09,0.77,0.14c0.41,0.07,0.81,0.15,1.21,0.25
			c0.26,0.06,0.52,0.14,0.78,0.22c0.38,0.11,0.77,0.22,1.15,0.36c0.25,0.09,0.5,0.19,0.76,0.29c0.37,0.15,0.74,0.3,1.1,0.47
			c0.25,0.12,0.49,0.24,0.73,0.36c0.35,0.18,0.7,0.38,1.05,0.58c0.23,0.14,0.47,0.28,0.7,0.43c0.34,0.22,0.67,0.45,0.99,0.69
			c0.22,0.16,0.44,0.33,0.66,0.5c0.48,0.38,0.95,0.77,1.4,1.2c4.21,3.99,6.45,9.28,6.46,15.01c-4.77-1.59-10.2-2.4-16.3-2.4
			c-1.81,0-3.28,1.95-3.28,4.34c0,2.39,1.47,4.34,3.28,4.34c6.3,0,11.74,0.91,16.31,2.71V259.45z M971.06,236.12
			c-0.59,0.66-1.21,1.28-1.86,1.87c-0.23,0.21-0.47,0.39-0.7,0.59c-0.43,0.37-0.86,0.73-1.31,1.07c-0.28,0.21-0.57,0.4-0.86,0.59
			c-0.43,0.29-0.85,0.59-1.29,0.86c-0.3,0.19-0.62,0.35-0.93,0.53c-0.44,0.24-0.88,0.48-1.33,0.7c-0.33,0.16-0.66,0.3-0.99,0.44
			c-0.46,0.2-0.93,0.39-1.4,0.56c-0.34,0.12-0.68,0.24-1.03,0.35c-0.48,0.15-0.96,0.29-1.45,0.42c-0.35,0.09-0.7,0.18-1.05,0.25
			c-0.5,0.11-1,0.19-1.51,0.27c-0.36,0.05-0.72,0.11-1.08,0.15c-0.78,0.09-1.56,0.16-2.36,0.18c-7.48,0.21-14.35-2.58-19.58-7.81
			l-6.28-6.28c7.37-4.38,17.63-6.6,30.68-6.6c2.4,0,4.34-1.95,4.34-4.34c0-2.39-1.94-4.34-4.34-4.34c-12.91,0-23.59,2.06-31.95,6.12
			l1.5-4.11c2.63-7.22,8.33-12.7,15.65-15.03c0.48-0.15,0.96-0.29,1.44-0.41c0.12-0.03,0.25-0.05,0.38-0.09
			c0.35-0.08,0.71-0.17,1.07-0.23c0.16-0.03,0.33-0.05,0.49-0.08c0.32-0.06,0.64-0.11,0.95-0.15c0.19-0.02,0.37-0.04,0.56-0.06
			c0.3-0.03,0.6-0.06,0.9-0.08c0.19-0.01,0.39-0.02,0.58-0.03c0.29-0.01,0.58-0.03,0.86-0.03c0.2,0,0.41,0,0.61,0
			c0.28,0,0.56,0.01,0.83,0.02c0.21,0.01,0.42,0.02,0.63,0.04c0.27,0.02,0.54,0.04,0.8,0.07c0.21,0.02,0.43,0.05,0.64,0.08
			c0.27,0.03,0.53,0.08,0.8,0.12c0.17,0.03,0.35,0.06,0.52,0.09c0.73,0.14,1.46,0.31,2.17,0.52c0.12,0.03,0.25,0.07,0.37,0.11
			c0.72,0.22,1.42,0.47,2.12,0.75c0.11,0.04,0.21,0.09,0.32,0.14c0.71,0.3,1.42,0.64,2.11,1.01c0.07,0.04,0.13,0.08,0.2,0.12
			c0.72,0.4,1.43,0.83,2.13,1.31l21.55,14.91L971.06,236.12z"/>
	</g>
</g>
</svg>
